<mxfile host="app.diagrams.net" modified="2021-01-25T08:57:16.928Z" agent="5.0 (Windows)" etag="_ID-dtT4ncEOyiAx0Dnp" version="14.2.7" type="github">
  <diagram id="DB7DYyGe6dCBV-LKf9_g" name="Page-1">
    <mxGraphModel dx="1117" dy="537" grid="1" gridSize="10" guides="1" tooltips="1" connect="1" arrows="1" fold="1" page="1" pageScale="1" pageWidth="827" pageHeight="1169" math="0" shadow="0">
      <root>
        <mxCell id="0" />
        <mxCell id="1" parent="0" />
        <mxCell id="XuUBlldkIkATHeK3EOdW-46" value="EMS QUALIF" style="rounded=1;whiteSpace=wrap;html=1;" vertex="1" parent="1">
          <mxGeometry x="335" y="130" width="140" height="200" as="geometry" />
        </mxCell>
        <mxCell id="Vw3KiEQnQfza69MFVmrH-1" value="Consommateur de Message" style="rounded=1;whiteSpace=wrap;html=1;" parent="1" vertex="1">
          <mxGeometry x="40" y="20" width="120" height="60" as="geometry" />
        </mxCell>
        <mxCell id="Vw3KiEQnQfza69MFVmrH-3" value="&lt;div&gt;Producteur&lt;/div&gt;&lt;div&gt;de Message&lt;br&gt;&lt;/div&gt;" style="rounded=1;whiteSpace=wrap;html=1;" parent="1" vertex="1">
          <mxGeometry x="630" y="20" width="120" height="60" as="geometry" />
        </mxCell>
        <mxCell id="Vw3KiEQnQfza69MFVmrH-16" value="" style="shape=datastore;whiteSpace=wrap;html=1;rotation=-90;" parent="1" vertex="1">
          <mxGeometry x="360" width="30" height="100" as="geometry" />
        </mxCell>
        <mxCell id="yvAMT9Jdo3WJvmyWWWsH-12" value="SOLUTION 1" style="swimlane;html=1;childLayout=stackLayout;resizeParent=1;resizeParentMax=0;horizontal=0;startSize=20;horizontalStack=0;" parent="1" vertex="1">
          <mxGeometry x="24" y="110" width="780" height="380" as="geometry" />
        </mxCell>
        <mxCell id="yvAMT9Jdo3WJvmyWWWsH-13" value="INTEG" style="swimlane;html=1;startSize=20;horizontal=0;" parent="yvAMT9Jdo3WJvmyWWWsH-12" vertex="1">
          <mxGeometry x="20" width="760" height="110" as="geometry" />
        </mxCell>
        <mxCell id="fmMvQ1CZ4i4TI4SBkcEm-39" value="Consommateur" style="rounded=1;whiteSpace=wrap;html=1;fillColor=#dae8fc;strokeColor=#6c8ebf;" parent="yvAMT9Jdo3WJvmyWWWsH-13" vertex="1">
          <mxGeometry x="66" y="30" width="120" height="30" as="geometry" />
        </mxCell>
        <mxCell id="fmMvQ1CZ4i4TI4SBkcEm-40" value="Producteur" style="rounded=1;whiteSpace=wrap;html=1;" parent="yvAMT9Jdo3WJvmyWWWsH-13" vertex="1">
          <mxGeometry x="546" y="35" width="120" height="30" as="geometry" />
        </mxCell>
        <mxCell id="fmMvQ1CZ4i4TI4SBkcEm-42" value="" style="endArrow=classic;html=1;strokeColor=#000000;entryX=1;entryY=0.5;entryDx=0;entryDy=0;exitX=0.5;exitY=0;exitDx=0;exitDy=0;edgeStyle=orthogonalEdgeStyle;" parent="yvAMT9Jdo3WJvmyWWWsH-13" source="fmMvQ1CZ4i4TI4SBkcEm-41" target="fmMvQ1CZ4i4TI4SBkcEm-39" edge="1">
          <mxGeometry relative="1" as="geometry">
            <mxPoint x="385" y="122" as="sourcePoint" />
            <mxPoint x="285" y="122" as="targetPoint" />
          </mxGeometry>
        </mxCell>
        <mxCell id="fmMvQ1CZ4i4TI4SBkcEm-43" value="" style="shape=message;html=1;outlineConnect=0;" parent="fmMvQ1CZ4i4TI4SBkcEm-42" vertex="1">
          <mxGeometry width="20" height="14" relative="1" as="geometry">
            <mxPoint x="-10" y="-7" as="offset" />
          </mxGeometry>
        </mxCell>
        <mxCell id="fmMvQ1CZ4i4TI4SBkcEm-44" value="" style="endArrow=classic;html=1;strokeColor=#000000;entryX=0.5;entryY=1;entryDx=0;entryDy=0;exitX=0;exitY=0.5;exitDx=0;exitDy=0;" parent="yvAMT9Jdo3WJvmyWWWsH-13" source="fmMvQ1CZ4i4TI4SBkcEm-40" target="fmMvQ1CZ4i4TI4SBkcEm-41" edge="1">
          <mxGeometry relative="1" as="geometry">
            <mxPoint x="590" y="92" as="sourcePoint" />
            <mxPoint x="425" y="92" as="targetPoint" />
          </mxGeometry>
        </mxCell>
        <mxCell id="fmMvQ1CZ4i4TI4SBkcEm-45" value="" style="shape=message;html=1;outlineConnect=0;" parent="fmMvQ1CZ4i4TI4SBkcEm-44" vertex="1">
          <mxGeometry width="20" height="14" relative="1" as="geometry">
            <mxPoint x="-10" y="-7" as="offset" />
          </mxGeometry>
        </mxCell>
        <mxCell id="fmMvQ1CZ4i4TI4SBkcEm-41" value="" style="shape=datastore;whiteSpace=wrap;html=1;rotation=-90;fillColor=#dae8fc;strokeColor=#6c8ebf;" parent="yvAMT9Jdo3WJvmyWWWsH-13" vertex="1">
          <mxGeometry x="350" y="14" width="20" height="70" as="geometry" />
        </mxCell>
        <mxCell id="XuUBlldkIkATHeK3EOdW-52" value="Consommateur" style="rounded=1;whiteSpace=wrap;html=1;fillColor=#dae8fc;strokeColor=#6c8ebf;" vertex="1" parent="yvAMT9Jdo3WJvmyWWWsH-13">
          <mxGeometry x="66" y="65" width="120" height="30" as="geometry" />
        </mxCell>
        <mxCell id="yvAMT9Jdo3WJvmyWWWsH-14" value="QUALIF" style="swimlane;html=1;startSize=20;horizontal=0;" parent="yvAMT9Jdo3WJvmyWWWsH-12" vertex="1">
          <mxGeometry x="20" y="110" width="760" height="120" as="geometry" />
        </mxCell>
        <mxCell id="fmMvQ1CZ4i4TI4SBkcEm-46" value="Consommateur" style="rounded=1;whiteSpace=wrap;html=1;fillColor=#dae8fc;strokeColor=#6c8ebf;" parent="yvAMT9Jdo3WJvmyWWWsH-14" vertex="1">
          <mxGeometry x="66" y="30" width="120" height="30" as="geometry" />
        </mxCell>
        <mxCell id="fmMvQ1CZ4i4TI4SBkcEm-47" value="Producteur" style="rounded=1;whiteSpace=wrap;html=1;" parent="yvAMT9Jdo3WJvmyWWWsH-14" vertex="1">
          <mxGeometry x="550" y="30" width="120" height="30" as="geometry" />
        </mxCell>
        <mxCell id="fmMvQ1CZ4i4TI4SBkcEm-48" value="" style="shape=datastore;whiteSpace=wrap;html=1;rotation=-90;fillColor=#dae8fc;strokeColor=#6c8ebf;" parent="yvAMT9Jdo3WJvmyWWWsH-14" vertex="1">
          <mxGeometry x="346" y="9.5" width="24" height="71" as="geometry" />
        </mxCell>
        <mxCell id="fmMvQ1CZ4i4TI4SBkcEm-49" value="" style="endArrow=classic;html=1;strokeColor=#000000;exitX=0.5;exitY=0;exitDx=0;exitDy=0;entryX=1;entryY=0.5;entryDx=0;entryDy=0;edgeStyle=orthogonalEdgeStyle;" parent="yvAMT9Jdo3WJvmyWWWsH-14" source="fmMvQ1CZ4i4TI4SBkcEm-48" edge="1" target="fmMvQ1CZ4i4TI4SBkcEm-46">
          <mxGeometry relative="1" as="geometry">
            <mxPoint x="345" y="-518" as="sourcePoint" />
            <mxPoint x="186" y="81" as="targetPoint" />
          </mxGeometry>
        </mxCell>
        <mxCell id="fmMvQ1CZ4i4TI4SBkcEm-50" value="" style="shape=message;html=1;outlineConnect=0;" parent="fmMvQ1CZ4i4TI4SBkcEm-49" vertex="1">
          <mxGeometry width="20" height="14" relative="1" as="geometry">
            <mxPoint x="-10" y="-7" as="offset" />
          </mxGeometry>
        </mxCell>
        <mxCell id="fmMvQ1CZ4i4TI4SBkcEm-51" value="" style="endArrow=classic;html=1;strokeColor=#000000;entryX=0.5;entryY=1;entryDx=0;entryDy=0;exitX=0;exitY=0.5;exitDx=0;exitDy=0;edgeStyle=orthogonalEdgeStyle;" parent="yvAMT9Jdo3WJvmyWWWsH-14" source="fmMvQ1CZ4i4TI4SBkcEm-47" target="fmMvQ1CZ4i4TI4SBkcEm-48" edge="1">
          <mxGeometry relative="1" as="geometry">
            <mxPoint x="550" y="-557" as="sourcePoint" />
            <mxPoint x="385" y="-557" as="targetPoint" />
          </mxGeometry>
        </mxCell>
        <mxCell id="fmMvQ1CZ4i4TI4SBkcEm-52" value="" style="shape=message;html=1;outlineConnect=0;" parent="fmMvQ1CZ4i4TI4SBkcEm-51" vertex="1">
          <mxGeometry width="20" height="14" relative="1" as="geometry">
            <mxPoint x="-10" y="-7" as="offset" />
          </mxGeometry>
        </mxCell>
        <mxCell id="XuUBlldkIkATHeK3EOdW-56" value="Consommateur" style="rounded=1;whiteSpace=wrap;html=1;fillColor=#dae8fc;strokeColor=#6c8ebf;" vertex="1" parent="yvAMT9Jdo3WJvmyWWWsH-14">
          <mxGeometry x="66" y="66" width="120" height="30" as="geometry" />
        </mxCell>
        <mxCell id="yvAMT9Jdo3WJvmyWWWsH-15" value="RECETTE" style="swimlane;html=1;startSize=20;horizontal=0;" parent="yvAMT9Jdo3WJvmyWWWsH-12" vertex="1">
          <mxGeometry x="20" y="230" width="760" height="150" as="geometry" />
        </mxCell>
        <mxCell id="XuUBlldkIkATHeK3EOdW-1" value="EMS REC" style="rounded=1;whiteSpace=wrap;html=1;" vertex="1" parent="yvAMT9Jdo3WJvmyWWWsH-15">
          <mxGeometry x="290" y="10" width="140" height="100" as="geometry" />
        </mxCell>
        <mxCell id="fmMvQ1CZ4i4TI4SBkcEm-53" value="Consommateur" style="rounded=1;whiteSpace=wrap;html=1;fillColor=#dae8fc;strokeColor=#6c8ebf;" parent="yvAMT9Jdo3WJvmyWWWsH-15" vertex="1">
          <mxGeometry x="70" y="60" width="120" height="30" as="geometry" />
        </mxCell>
        <mxCell id="fmMvQ1CZ4i4TI4SBkcEm-54" value="Producteur" style="rounded=1;whiteSpace=wrap;html=1;" parent="yvAMT9Jdo3WJvmyWWWsH-15" vertex="1">
          <mxGeometry x="550" y="70" width="120" height="30" as="geometry" />
        </mxCell>
        <mxCell id="fmMvQ1CZ4i4TI4SBkcEm-55" value="" style="shape=datastore;whiteSpace=wrap;html=1;rotation=-90;fillColor=#dae8fc;strokeColor=#6c8ebf;" parent="yvAMT9Jdo3WJvmyWWWsH-15" vertex="1">
          <mxGeometry x="349.5" y="44.5" width="24" height="75" as="geometry" />
        </mxCell>
        <mxCell id="fmMvQ1CZ4i4TI4SBkcEm-56" value="" style="endArrow=classic;html=1;strokeColor=#000000;entryX=1;entryY=0.75;entryDx=0;entryDy=0;exitX=0.5;exitY=0;exitDx=0;exitDy=0;edgeStyle=orthogonalEdgeStyle;" parent="yvAMT9Jdo3WJvmyWWWsH-15" source="fmMvQ1CZ4i4TI4SBkcEm-55" target="fmMvQ1CZ4i4TI4SBkcEm-53" edge="1">
          <mxGeometry relative="1" as="geometry">
            <mxPoint x="345" y="-523" as="sourcePoint" />
            <mxPoint x="245" y="-523" as="targetPoint" />
          </mxGeometry>
        </mxCell>
        <mxCell id="fmMvQ1CZ4i4TI4SBkcEm-57" value="" style="shape=message;html=1;outlineConnect=0;" parent="fmMvQ1CZ4i4TI4SBkcEm-56" vertex="1">
          <mxGeometry width="20" height="14" relative="1" as="geometry">
            <mxPoint x="-10" y="-7" as="offset" />
          </mxGeometry>
        </mxCell>
        <mxCell id="fmMvQ1CZ4i4TI4SBkcEm-58" value="" style="endArrow=classic;html=1;strokeColor=#000000;entryX=0.5;entryY=1;entryDx=0;entryDy=0;exitX=0;exitY=0.5;exitDx=0;exitDy=0;edgeStyle=orthogonalEdgeStyle;" parent="yvAMT9Jdo3WJvmyWWWsH-15" source="fmMvQ1CZ4i4TI4SBkcEm-54" target="fmMvQ1CZ4i4TI4SBkcEm-55" edge="1">
          <mxGeometry relative="1" as="geometry">
            <mxPoint x="550" y="-553" as="sourcePoint" />
            <mxPoint x="385" y="-553" as="targetPoint" />
          </mxGeometry>
        </mxCell>
        <mxCell id="fmMvQ1CZ4i4TI4SBkcEm-59" value="" style="shape=message;html=1;outlineConnect=0;" parent="fmMvQ1CZ4i4TI4SBkcEm-58" vertex="1">
          <mxGeometry width="20" height="14" relative="1" as="geometry">
            <mxPoint x="-10" y="-7" as="offset" />
          </mxGeometry>
        </mxCell>
        <mxCell id="yvAMT9Jdo3WJvmyWWWsH-21" value="" style="endArrow=classic;html=1;strokeColor=#000000;entryX=1;entryY=0.5;entryDx=0;entryDy=0;exitX=0.5;exitY=0;exitDx=0;exitDy=0;" parent="1" source="Vw3KiEQnQfza69MFVmrH-16" target="Vw3KiEQnQfza69MFVmrH-1" edge="1">
          <mxGeometry relative="1" as="geometry">
            <mxPoint x="400" y="122" as="sourcePoint" />
            <mxPoint x="300" y="122" as="targetPoint" />
          </mxGeometry>
        </mxCell>
        <mxCell id="yvAMT9Jdo3WJvmyWWWsH-22" value="" style="shape=message;html=1;outlineConnect=0;" parent="yvAMT9Jdo3WJvmyWWWsH-21" vertex="1">
          <mxGeometry width="20" height="14" relative="1" as="geometry">
            <mxPoint x="-10" y="-7" as="offset" />
          </mxGeometry>
        </mxCell>
        <mxCell id="yvAMT9Jdo3WJvmyWWWsH-23" value="" style="endArrow=classic;html=1;strokeColor=#000000;entryX=0.5;entryY=1;entryDx=0;entryDy=0;exitX=0;exitY=0.5;exitDx=0;exitDy=0;" parent="1" source="Vw3KiEQnQfza69MFVmrH-3" target="Vw3KiEQnQfza69MFVmrH-16" edge="1">
          <mxGeometry relative="1" as="geometry">
            <mxPoint x="605" y="92" as="sourcePoint" />
            <mxPoint x="440" y="92" as="targetPoint" />
          </mxGeometry>
        </mxCell>
        <mxCell id="yvAMT9Jdo3WJvmyWWWsH-24" value="" style="shape=message;html=1;outlineConnect=0;" parent="yvAMT9Jdo3WJvmyWWWsH-23" vertex="1">
          <mxGeometry width="20" height="14" relative="1" as="geometry">
            <mxPoint x="-10" y="-7" as="offset" />
          </mxGeometry>
        </mxCell>
        <mxCell id="fmMvQ1CZ4i4TI4SBkcEm-62" value="" style="shape=datastore;whiteSpace=wrap;html=1;rotation=-90;fillColor=#dae8fc;strokeColor=#6c8ebf;" parent="1" vertex="1">
          <mxGeometry x="390" y="155" width="24" height="70" as="geometry" />
        </mxCell>
        <mxCell id="fmMvQ1CZ4i4TI4SBkcEm-63" value="" style="endArrow=classic;html=1;strokeColor=#000000;exitX=0.5;exitY=0;exitDx=0;exitDy=0;entryX=1;entryY=0.5;entryDx=0;entryDy=0;edgeStyle=orthogonalEdgeStyle;" parent="1" source="fmMvQ1CZ4i4TI4SBkcEm-62" target="XuUBlldkIkATHeK3EOdW-52" edge="1">
          <mxGeometry relative="1" as="geometry">
            <mxPoint x="353" y="310" as="sourcePoint" />
            <mxPoint x="234" y="310" as="targetPoint" />
          </mxGeometry>
        </mxCell>
        <mxCell id="fmMvQ1CZ4i4TI4SBkcEm-64" value="" style="shape=message;html=1;outlineConnect=0;" parent="fmMvQ1CZ4i4TI4SBkcEm-63" vertex="1">
          <mxGeometry width="20" height="14" relative="1" as="geometry">
            <mxPoint x="-10" y="1" as="offset" />
          </mxGeometry>
        </mxCell>
        <mxCell id="fmMvQ1CZ4i4TI4SBkcEm-60" value="" style="endArrow=classic;html=1;strokeColor=#b85450;entryX=0.5;entryY=1;entryDx=0;entryDy=0;exitX=0;exitY=0.25;exitDx=0;exitDy=0;edgeStyle=orthogonalEdgeStyle;fillColor=#f8cecc;strokeWidth=2;" parent="1" source="fmMvQ1CZ4i4TI4SBkcEm-47" target="fmMvQ1CZ4i4TI4SBkcEm-62" edge="1">
          <mxGeometry relative="1" as="geometry">
            <mxPoint x="590" y="180" as="sourcePoint" />
            <mxPoint x="449" y="180" as="targetPoint" />
            <Array as="points">
              <mxPoint x="560" y="258" />
              <mxPoint x="560" y="190" />
            </Array>
          </mxGeometry>
        </mxCell>
        <mxCell id="fmMvQ1CZ4i4TI4SBkcEm-61" value="" style="shape=message;html=1;outlineConnect=0;" parent="fmMvQ1CZ4i4TI4SBkcEm-60" vertex="1">
          <mxGeometry width="20" height="14" relative="1" as="geometry">
            <mxPoint x="-50" y="-6.43" as="offset" />
          </mxGeometry>
        </mxCell>
        <mxCell id="fmMvQ1CZ4i4TI4SBkcEm-65" value="" style="shape=datastore;whiteSpace=wrap;html=1;rotation=-90;fillColor=#dae8fc;strokeColor=#6c8ebf;" parent="1" vertex="1">
          <mxGeometry x="390" y="265" width="24" height="75" as="geometry" />
        </mxCell>
        <mxCell id="fmMvQ1CZ4i4TI4SBkcEm-66" value="" style="endArrow=classic;html=1;strokeColor=#000000;exitX=0.5;exitY=0;exitDx=0;exitDy=0;entryX=1;entryY=0.5;entryDx=0;entryDy=0;edgeStyle=orthogonalEdgeStyle;" parent="1" source="fmMvQ1CZ4i4TI4SBkcEm-65" target="XuUBlldkIkATHeK3EOdW-56" edge="1">
          <mxGeometry relative="1" as="geometry">
            <mxPoint x="357" y="225" as="sourcePoint" />
            <mxPoint x="238" y="267.5" as="targetPoint" />
            <Array as="points">
              <mxPoint x="367" y="303" />
              <mxPoint x="367" y="301" />
              <mxPoint x="294" y="301" />
              <mxPoint x="230" y="300" />
            </Array>
          </mxGeometry>
        </mxCell>
        <mxCell id="fmMvQ1CZ4i4TI4SBkcEm-67" value="" style="shape=message;html=1;outlineConnect=0;" parent="fmMvQ1CZ4i4TI4SBkcEm-66" vertex="1">
          <mxGeometry width="20" height="14" relative="1" as="geometry">
            <mxPoint x="-10" y="-5.5" as="offset" />
          </mxGeometry>
        </mxCell>
        <mxCell id="fmMvQ1CZ4i4TI4SBkcEm-70" value="" style="endArrow=classic;html=1;strokeColor=#b85450;entryX=0.5;entryY=1;entryDx=0;entryDy=0;edgeStyle=orthogonalEdgeStyle;fillColor=#f8cecc;strokeWidth=2;exitX=0;exitY=0.25;exitDx=0;exitDy=0;" parent="1" target="fmMvQ1CZ4i4TI4SBkcEm-65" edge="1" source="fmMvQ1CZ4i4TI4SBkcEm-54">
          <mxGeometry relative="1" as="geometry">
            <mxPoint x="590" y="160" as="sourcePoint" />
            <mxPoint x="453" y="290" as="targetPoint" />
            <Array as="points">
              <mxPoint x="570" y="418" />
              <mxPoint x="570" y="303" />
            </Array>
          </mxGeometry>
        </mxCell>
        <mxCell id="fmMvQ1CZ4i4TI4SBkcEm-71" value="" style="shape=message;html=1;outlineConnect=0;" parent="fmMvQ1CZ4i4TI4SBkcEm-70" vertex="1">
          <mxGeometry width="20" height="14" relative="1" as="geometry">
            <mxPoint x="-70" y="-9.29" as="offset" />
          </mxGeometry>
        </mxCell>
        <mxCell id="XuUBlldkIkATHeK3EOdW-62" value="EMS QUALIF" style="rounded=1;whiteSpace=wrap;html=1;" vertex="1" parent="1">
          <mxGeometry x="335" y="130" width="140" height="200" as="geometry" />
        </mxCell>
        <mxCell id="XuUBlldkIkATHeK3EOdW-63" value="SOLUTION 1" style="swimlane;html=1;childLayout=stackLayout;resizeParent=1;resizeParentMax=0;horizontal=0;startSize=20;horizontalStack=0;" vertex="1" parent="1">
          <mxGeometry x="24" y="110" width="780" height="380" as="geometry" />
        </mxCell>
        <mxCell id="XuUBlldkIkATHeK3EOdW-64" value="INTEG" style="swimlane;html=1;startSize=20;horizontal=0;" vertex="1" parent="XuUBlldkIkATHeK3EOdW-63">
          <mxGeometry x="20" width="760" height="110" as="geometry" />
        </mxCell>
        <mxCell id="XuUBlldkIkATHeK3EOdW-65" value="Consommateur" style="rounded=1;whiteSpace=wrap;html=1;fillColor=#dae8fc;strokeColor=#6c8ebf;" vertex="1" parent="XuUBlldkIkATHeK3EOdW-64">
          <mxGeometry x="66" y="30" width="120" height="30" as="geometry" />
        </mxCell>
        <mxCell id="XuUBlldkIkATHeK3EOdW-66" value="Producteur" style="rounded=1;whiteSpace=wrap;html=1;" vertex="1" parent="XuUBlldkIkATHeK3EOdW-64">
          <mxGeometry x="546" y="35" width="120" height="30" as="geometry" />
        </mxCell>
        <mxCell id="XuUBlldkIkATHeK3EOdW-67" value="" style="endArrow=classic;html=1;strokeColor=#000000;entryX=1;entryY=0.5;entryDx=0;entryDy=0;exitX=0.5;exitY=0;exitDx=0;exitDy=0;edgeStyle=orthogonalEdgeStyle;" edge="1" parent="XuUBlldkIkATHeK3EOdW-64" source="XuUBlldkIkATHeK3EOdW-71" target="XuUBlldkIkATHeK3EOdW-65">
          <mxGeometry relative="1" as="geometry">
            <mxPoint x="385" y="122" as="sourcePoint" />
            <mxPoint x="285" y="122" as="targetPoint" />
          </mxGeometry>
        </mxCell>
        <mxCell id="XuUBlldkIkATHeK3EOdW-68" value="" style="shape=message;html=1;outlineConnect=0;" vertex="1" parent="XuUBlldkIkATHeK3EOdW-67">
          <mxGeometry width="20" height="14" relative="1" as="geometry">
            <mxPoint x="-10" y="-7" as="offset" />
          </mxGeometry>
        </mxCell>
        <mxCell id="XuUBlldkIkATHeK3EOdW-69" value="" style="endArrow=classic;html=1;strokeColor=#000000;entryX=0.5;entryY=1;entryDx=0;entryDy=0;exitX=0;exitY=0.5;exitDx=0;exitDy=0;" edge="1" parent="XuUBlldkIkATHeK3EOdW-64" source="XuUBlldkIkATHeK3EOdW-66" target="XuUBlldkIkATHeK3EOdW-71">
          <mxGeometry relative="1" as="geometry">
            <mxPoint x="590" y="92" as="sourcePoint" />
            <mxPoint x="425" y="92" as="targetPoint" />
          </mxGeometry>
        </mxCell>
        <mxCell id="XuUBlldkIkATHeK3EOdW-70" value="" style="shape=message;html=1;outlineConnect=0;" vertex="1" parent="XuUBlldkIkATHeK3EOdW-69">
          <mxGeometry width="20" height="14" relative="1" as="geometry">
            <mxPoint x="-10" y="-7" as="offset" />
          </mxGeometry>
        </mxCell>
        <mxCell id="XuUBlldkIkATHeK3EOdW-71" value="" style="shape=datastore;whiteSpace=wrap;html=1;rotation=-90;fillColor=#dae8fc;strokeColor=#6c8ebf;" vertex="1" parent="XuUBlldkIkATHeK3EOdW-64">
          <mxGeometry x="350" y="14" width="20" height="70" as="geometry" />
        </mxCell>
        <mxCell id="XuUBlldkIkATHeK3EOdW-72" value="Consommateur" style="rounded=1;whiteSpace=wrap;html=1;fillColor=#dae8fc;strokeColor=#6c8ebf;" vertex="1" parent="XuUBlldkIkATHeK3EOdW-64">
          <mxGeometry x="66" y="65" width="120" height="30" as="geometry" />
        </mxCell>
        <mxCell id="XuUBlldkIkATHeK3EOdW-73" value="QUALIF" style="swimlane;html=1;startSize=20;horizontal=0;" vertex="1" parent="XuUBlldkIkATHeK3EOdW-63">
          <mxGeometry x="20" y="110" width="760" height="120" as="geometry" />
        </mxCell>
        <mxCell id="XuUBlldkIkATHeK3EOdW-74" value="Consommateur" style="rounded=1;whiteSpace=wrap;html=1;fillColor=#dae8fc;strokeColor=#6c8ebf;" vertex="1" parent="XuUBlldkIkATHeK3EOdW-73">
          <mxGeometry x="66" y="30" width="120" height="30" as="geometry" />
        </mxCell>
        <mxCell id="XuUBlldkIkATHeK3EOdW-75" value="Producteur" style="rounded=1;whiteSpace=wrap;html=1;" vertex="1" parent="XuUBlldkIkATHeK3EOdW-73">
          <mxGeometry x="550" y="30" width="120" height="30" as="geometry" />
        </mxCell>
        <mxCell id="XuUBlldkIkATHeK3EOdW-76" value="" style="shape=datastore;whiteSpace=wrap;html=1;rotation=-90;fillColor=#dae8fc;strokeColor=#6c8ebf;" vertex="1" parent="XuUBlldkIkATHeK3EOdW-73">
          <mxGeometry x="346" y="9.5" width="24" height="71" as="geometry" />
        </mxCell>
        <mxCell id="XuUBlldkIkATHeK3EOdW-77" value="" style="endArrow=classic;html=1;strokeColor=#000000;exitX=0.5;exitY=0;exitDx=0;exitDy=0;entryX=1;entryY=0.5;entryDx=0;entryDy=0;edgeStyle=orthogonalEdgeStyle;" edge="1" parent="XuUBlldkIkATHeK3EOdW-73" source="XuUBlldkIkATHeK3EOdW-76" target="XuUBlldkIkATHeK3EOdW-74">
          <mxGeometry relative="1" as="geometry">
            <mxPoint x="345" y="-518" as="sourcePoint" />
            <mxPoint x="186" y="81" as="targetPoint" />
          </mxGeometry>
        </mxCell>
        <mxCell id="XuUBlldkIkATHeK3EOdW-78" value="" style="shape=message;html=1;outlineConnect=0;" vertex="1" parent="XuUBlldkIkATHeK3EOdW-77">
          <mxGeometry width="20" height="14" relative="1" as="geometry">
            <mxPoint x="-10" y="-7" as="offset" />
          </mxGeometry>
        </mxCell>
        <mxCell id="XuUBlldkIkATHeK3EOdW-79" value="" style="endArrow=classic;html=1;strokeColor=#000000;entryX=0.5;entryY=1;entryDx=0;entryDy=0;exitX=0;exitY=0.5;exitDx=0;exitDy=0;edgeStyle=orthogonalEdgeStyle;" edge="1" parent="XuUBlldkIkATHeK3EOdW-73" source="XuUBlldkIkATHeK3EOdW-75" target="XuUBlldkIkATHeK3EOdW-76">
          <mxGeometry relative="1" as="geometry">
            <mxPoint x="550" y="-557" as="sourcePoint" />
            <mxPoint x="385" y="-557" as="targetPoint" />
          </mxGeometry>
        </mxCell>
        <mxCell id="XuUBlldkIkATHeK3EOdW-80" value="" style="shape=message;html=1;outlineConnect=0;" vertex="1" parent="XuUBlldkIkATHeK3EOdW-79">
          <mxGeometry width="20" height="14" relative="1" as="geometry">
            <mxPoint x="-10" y="-7" as="offset" />
          </mxGeometry>
        </mxCell>
        <mxCell id="XuUBlldkIkATHeK3EOdW-81" value="Consommateur" style="rounded=1;whiteSpace=wrap;html=1;fillColor=#dae8fc;strokeColor=#6c8ebf;" vertex="1" parent="XuUBlldkIkATHeK3EOdW-73">
          <mxGeometry x="66" y="66" width="120" height="30" as="geometry" />
        </mxCell>
        <mxCell id="XuUBlldkIkATHeK3EOdW-82" value="RECETTE" style="swimlane;html=1;startSize=20;horizontal=0;" vertex="1" parent="XuUBlldkIkATHeK3EOdW-63">
          <mxGeometry x="20" y="230" width="760" height="150" as="geometry" />
        </mxCell>
        <mxCell id="XuUBlldkIkATHeK3EOdW-83" value="EMS REC" style="rounded=1;whiteSpace=wrap;html=1;" vertex="1" parent="XuUBlldkIkATHeK3EOdW-82">
          <mxGeometry x="290" y="10" width="140" height="100" as="geometry" />
        </mxCell>
        <mxCell id="XuUBlldkIkATHeK3EOdW-84" value="Consommateur" style="rounded=1;whiteSpace=wrap;html=1;fillColor=#dae8fc;strokeColor=#6c8ebf;" vertex="1" parent="XuUBlldkIkATHeK3EOdW-82">
          <mxGeometry x="70" y="60" width="120" height="30" as="geometry" />
        </mxCell>
        <mxCell id="XuUBlldkIkATHeK3EOdW-85" value="Producteur" style="rounded=1;whiteSpace=wrap;html=1;" vertex="1" parent="XuUBlldkIkATHeK3EOdW-82">
          <mxGeometry x="550" y="70" width="120" height="30" as="geometry" />
        </mxCell>
        <mxCell id="XuUBlldkIkATHeK3EOdW-86" value="" style="shape=datastore;whiteSpace=wrap;html=1;rotation=-90;fillColor=#dae8fc;strokeColor=#6c8ebf;" vertex="1" parent="XuUBlldkIkATHeK3EOdW-82">
          <mxGeometry x="349.5" y="44.5" width="24" height="75" as="geometry" />
        </mxCell>
        <mxCell id="XuUBlldkIkATHeK3EOdW-87" value="" style="endArrow=classic;html=1;strokeColor=#000000;entryX=1;entryY=0.75;entryDx=0;entryDy=0;exitX=0.5;exitY=0;exitDx=0;exitDy=0;edgeStyle=orthogonalEdgeStyle;" edge="1" parent="XuUBlldkIkATHeK3EOdW-82" source="XuUBlldkIkATHeK3EOdW-86" target="XuUBlldkIkATHeK3EOdW-84">
          <mxGeometry relative="1" as="geometry">
            <mxPoint x="345" y="-523" as="sourcePoint" />
            <mxPoint x="245" y="-523" as="targetPoint" />
          </mxGeometry>
        </mxCell>
        <mxCell id="XuUBlldkIkATHeK3EOdW-88" value="" style="shape=message;html=1;outlineConnect=0;" vertex="1" parent="XuUBlldkIkATHeK3EOdW-87">
          <mxGeometry width="20" height="14" relative="1" as="geometry">
            <mxPoint x="-10" y="-7" as="offset" />
          </mxGeometry>
        </mxCell>
        <mxCell id="XuUBlldkIkATHeK3EOdW-89" value="" style="endArrow=classic;html=1;strokeColor=#000000;entryX=0.5;entryY=1;entryDx=0;entryDy=0;exitX=0;exitY=0.5;exitDx=0;exitDy=0;edgeStyle=orthogonalEdgeStyle;" edge="1" parent="XuUBlldkIkATHeK3EOdW-82" source="XuUBlldkIkATHeK3EOdW-85" target="XuUBlldkIkATHeK3EOdW-86">
          <mxGeometry relative="1" as="geometry">
            <mxPoint x="550" y="-553" as="sourcePoint" />
            <mxPoint x="385" y="-553" as="targetPoint" />
          </mxGeometry>
        </mxCell>
        <mxCell id="XuUBlldkIkATHeK3EOdW-90" value="" style="shape=message;html=1;outlineConnect=0;" vertex="1" parent="XuUBlldkIkATHeK3EOdW-89">
          <mxGeometry width="20" height="14" relative="1" as="geometry">
            <mxPoint x="-10" y="-7" as="offset" />
          </mxGeometry>
        </mxCell>
        <mxCell id="XuUBlldkIkATHeK3EOdW-91" value="" style="shape=datastore;whiteSpace=wrap;html=1;rotation=-90;fillColor=#dae8fc;strokeColor=#6c8ebf;" vertex="1" parent="1">
          <mxGeometry x="390" y="155" width="24" height="70" as="geometry" />
        </mxCell>
        <mxCell id="XuUBlldkIkATHeK3EOdW-92" value="" style="endArrow=classic;html=1;strokeColor=#000000;exitX=0.5;exitY=0;exitDx=0;exitDy=0;entryX=1;entryY=0.5;entryDx=0;entryDy=0;edgeStyle=orthogonalEdgeStyle;" edge="1" parent="1" source="XuUBlldkIkATHeK3EOdW-91" target="XuUBlldkIkATHeK3EOdW-72">
          <mxGeometry relative="1" as="geometry">
            <mxPoint x="353" y="310" as="sourcePoint" />
            <mxPoint x="234" y="310" as="targetPoint" />
          </mxGeometry>
        </mxCell>
        <mxCell id="XuUBlldkIkATHeK3EOdW-93" value="" style="shape=message;html=1;outlineConnect=0;" vertex="1" parent="XuUBlldkIkATHeK3EOdW-92">
          <mxGeometry width="20" height="14" relative="1" as="geometry">
            <mxPoint x="-10" y="1" as="offset" />
          </mxGeometry>
        </mxCell>
        <mxCell id="XuUBlldkIkATHeK3EOdW-94" value="" style="endArrow=classic;html=1;strokeColor=#b85450;entryX=0.5;entryY=1;entryDx=0;entryDy=0;exitX=0;exitY=0.25;exitDx=0;exitDy=0;edgeStyle=orthogonalEdgeStyle;fillColor=#f8cecc;strokeWidth=2;" edge="1" parent="1" source="XuUBlldkIkATHeK3EOdW-75" target="XuUBlldkIkATHeK3EOdW-91">
          <mxGeometry relative="1" as="geometry">
            <mxPoint x="590" y="180" as="sourcePoint" />
            <mxPoint x="449" y="180" as="targetPoint" />
            <Array as="points">
              <mxPoint x="560" y="258" />
              <mxPoint x="560" y="190" />
            </Array>
          </mxGeometry>
        </mxCell>
        <mxCell id="XuUBlldkIkATHeK3EOdW-95" value="" style="shape=message;html=1;outlineConnect=0;" vertex="1" parent="XuUBlldkIkATHeK3EOdW-94">
          <mxGeometry width="20" height="14" relative="1" as="geometry">
            <mxPoint x="-50" y="-6.43" as="offset" />
          </mxGeometry>
        </mxCell>
        <mxCell id="XuUBlldkIkATHeK3EOdW-96" value="" style="shape=datastore;whiteSpace=wrap;html=1;rotation=-90;fillColor=#dae8fc;strokeColor=#6c8ebf;" vertex="1" parent="1">
          <mxGeometry x="390" y="265" width="24" height="75" as="geometry" />
        </mxCell>
        <mxCell id="XuUBlldkIkATHeK3EOdW-97" value="" style="endArrow=classic;html=1;strokeColor=#000000;exitX=0.5;exitY=0;exitDx=0;exitDy=0;entryX=1;entryY=0.5;entryDx=0;entryDy=0;edgeStyle=orthogonalEdgeStyle;" edge="1" parent="1" source="XuUBlldkIkATHeK3EOdW-96" target="XuUBlldkIkATHeK3EOdW-81">
          <mxGeometry relative="1" as="geometry">
            <mxPoint x="357" y="225" as="sourcePoint" />
            <mxPoint x="238" y="267.5" as="targetPoint" />
            <Array as="points">
              <mxPoint x="367" y="303" />
              <mxPoint x="367" y="301" />
              <mxPoint x="294" y="301" />
              <mxPoint x="230" y="300" />
            </Array>
          </mxGeometry>
        </mxCell>
        <mxCell id="XuUBlldkIkATHeK3EOdW-98" value="" style="shape=message;html=1;outlineConnect=0;" vertex="1" parent="XuUBlldkIkATHeK3EOdW-97">
          <mxGeometry width="20" height="14" relative="1" as="geometry">
            <mxPoint x="-10" y="-5.5" as="offset" />
          </mxGeometry>
        </mxCell>
        <mxCell id="XuUBlldkIkATHeK3EOdW-99" value="" style="endArrow=classic;html=1;strokeColor=#b85450;entryX=0.5;entryY=1;entryDx=0;entryDy=0;edgeStyle=orthogonalEdgeStyle;fillColor=#f8cecc;strokeWidth=2;exitX=0;exitY=0.25;exitDx=0;exitDy=0;" edge="1" parent="1" source="XuUBlldkIkATHeK3EOdW-85" target="XuUBlldkIkATHeK3EOdW-96">
          <mxGeometry relative="1" as="geometry">
            <mxPoint x="590" y="160" as="sourcePoint" />
            <mxPoint x="453" y="290" as="targetPoint" />
            <Array as="points">
              <mxPoint x="570" y="418" />
              <mxPoint x="570" y="303" />
            </Array>
          </mxGeometry>
        </mxCell>
        <mxCell id="XuUBlldkIkATHeK3EOdW-100" value="" style="shape=message;html=1;outlineConnect=0;" vertex="1" parent="XuUBlldkIkATHeK3EOdW-99">
          <mxGeometry width="20" height="14" relative="1" as="geometry">
            <mxPoint x="-70" y="-9.29" as="offset" />
          </mxGeometry>
        </mxCell>
        <mxCell id="XuUBlldkIkATHeK3EOdW-116" value="EMS QUALIF" style="rounded=1;whiteSpace=wrap;html=1;" vertex="1" parent="1">
          <mxGeometry x="334" y="550" width="140" height="200" as="geometry" />
        </mxCell>
        <mxCell id="XuUBlldkIkATHeK3EOdW-117" value="SOLUTION 1" style="swimlane;html=1;childLayout=stackLayout;resizeParent=1;resizeParentMax=0;horizontal=0;startSize=20;horizontalStack=0;" vertex="1" parent="1">
          <mxGeometry x="23" y="530" width="780" height="380" as="geometry" />
        </mxCell>
        <mxCell id="XuUBlldkIkATHeK3EOdW-118" value="INTEG" style="swimlane;html=1;startSize=20;horizontal=0;" vertex="1" parent="XuUBlldkIkATHeK3EOdW-117">
          <mxGeometry x="20" width="760" height="110" as="geometry" />
        </mxCell>
        <mxCell id="XuUBlldkIkATHeK3EOdW-119" value="Consommateur" style="rounded=1;whiteSpace=wrap;html=1;" vertex="1" parent="XuUBlldkIkATHeK3EOdW-118">
          <mxGeometry x="66" y="30" width="120" height="30" as="geometry" />
        </mxCell>
        <mxCell id="XuUBlldkIkATHeK3EOdW-120" value="Producteur" style="rounded=1;whiteSpace=wrap;html=1;fillColor=#dae8fc;strokeColor=#6c8ebf;" vertex="1" parent="XuUBlldkIkATHeK3EOdW-118">
          <mxGeometry x="546" y="35" width="120" height="30" as="geometry" />
        </mxCell>
        <mxCell id="XuUBlldkIkATHeK3EOdW-121" value="" style="endArrow=classic;html=1;strokeColor=#000000;entryX=1;entryY=0.5;entryDx=0;entryDy=0;exitX=0.5;exitY=0;exitDx=0;exitDy=0;edgeStyle=orthogonalEdgeStyle;" edge="1" parent="XuUBlldkIkATHeK3EOdW-118" source="XuUBlldkIkATHeK3EOdW-125" target="XuUBlldkIkATHeK3EOdW-119">
          <mxGeometry relative="1" as="geometry">
            <mxPoint x="385" y="122" as="sourcePoint" />
            <mxPoint x="285" y="122" as="targetPoint" />
          </mxGeometry>
        </mxCell>
        <mxCell id="XuUBlldkIkATHeK3EOdW-122" value="" style="shape=message;html=1;outlineConnect=0;" vertex="1" parent="XuUBlldkIkATHeK3EOdW-121">
          <mxGeometry width="20" height="14" relative="1" as="geometry">
            <mxPoint x="-10" y="-7" as="offset" />
          </mxGeometry>
        </mxCell>
        <mxCell id="XuUBlldkIkATHeK3EOdW-123" value="" style="endArrow=classic;html=1;strokeColor=#000000;entryX=0.5;entryY=1;entryDx=0;entryDy=0;exitX=0;exitY=0.5;exitDx=0;exitDy=0;" edge="1" parent="XuUBlldkIkATHeK3EOdW-118" source="XuUBlldkIkATHeK3EOdW-120" target="XuUBlldkIkATHeK3EOdW-125">
          <mxGeometry relative="1" as="geometry">
            <mxPoint x="590" y="92" as="sourcePoint" />
            <mxPoint x="425" y="92" as="targetPoint" />
          </mxGeometry>
        </mxCell>
        <mxCell id="XuUBlldkIkATHeK3EOdW-124" value="" style="shape=message;html=1;outlineConnect=0;" vertex="1" parent="XuUBlldkIkATHeK3EOdW-123">
          <mxGeometry width="20" height="14" relative="1" as="geometry">
            <mxPoint x="-10" y="-7" as="offset" />
          </mxGeometry>
        </mxCell>
        <mxCell id="XuUBlldkIkATHeK3EOdW-125" value="" style="shape=datastore;whiteSpace=wrap;html=1;rotation=-90;fillColor=#dae8fc;strokeColor=#6c8ebf;" vertex="1" parent="XuUBlldkIkATHeK3EOdW-118">
          <mxGeometry x="350" y="14" width="20" height="70" as="geometry" />
        </mxCell>
        <mxCell id="XuUBlldkIkATHeK3EOdW-126" value="Consommateur" style="rounded=1;whiteSpace=wrap;html=1;" vertex="1" parent="XuUBlldkIkATHeK3EOdW-118">
          <mxGeometry x="66" y="65" width="120" height="30" as="geometry" />
        </mxCell>
        <mxCell id="XuUBlldkIkATHeK3EOdW-127" value="QUALIF" style="swimlane;html=1;startSize=20;horizontal=0;" vertex="1" parent="XuUBlldkIkATHeK3EOdW-117">
          <mxGeometry x="20" y="110" width="760" height="120" as="geometry" />
        </mxCell>
        <mxCell id="XuUBlldkIkATHeK3EOdW-128" value="Consommateur" style="rounded=1;whiteSpace=wrap;html=1;" vertex="1" parent="XuUBlldkIkATHeK3EOdW-127">
          <mxGeometry x="66" y="30" width="120" height="30" as="geometry" />
        </mxCell>
        <mxCell id="XuUBlldkIkATHeK3EOdW-129" value="Producteur" style="rounded=1;whiteSpace=wrap;html=1;fillColor=#dae8fc;strokeColor=#6c8ebf;" vertex="1" parent="XuUBlldkIkATHeK3EOdW-127">
          <mxGeometry x="547" y="67.5" width="120" height="30" as="geometry" />
        </mxCell>
        <mxCell id="XuUBlldkIkATHeK3EOdW-130" value="" style="shape=datastore;whiteSpace=wrap;html=1;rotation=-90;fillColor=#dae8fc;strokeColor=#6c8ebf;" vertex="1" parent="XuUBlldkIkATHeK3EOdW-127">
          <mxGeometry x="346" y="9.5" width="24" height="71" as="geometry" />
        </mxCell>
        <mxCell id="XuUBlldkIkATHeK3EOdW-135" value="Consommateur" style="rounded=1;whiteSpace=wrap;html=1;" vertex="1" parent="XuUBlldkIkATHeK3EOdW-127">
          <mxGeometry x="66" y="66" width="120" height="30" as="geometry" />
        </mxCell>
        <mxCell id="XuUBlldkIkATHeK3EOdW-148" value="" style="endArrow=classic;html=1;strokeColor=#b85450;entryX=0.5;entryY=1;entryDx=0;entryDy=0;exitX=0;exitY=0.25;exitDx=0;exitDy=0;edgeStyle=orthogonalEdgeStyle;fillColor=#f8cecc;strokeWidth=2;" edge="1" parent="XuUBlldkIkATHeK3EOdW-127" source="XuUBlldkIkATHeK3EOdW-129" target="XuUBlldkIkATHeK3EOdW-130">
          <mxGeometry relative="1" as="geometry">
            <mxPoint x="546" y="-40" as="sourcePoint" />
            <mxPoint x="405" y="-40" as="targetPoint" />
            <Array as="points">
              <mxPoint x="516" y="75" />
              <mxPoint x="516" y="45" />
            </Array>
          </mxGeometry>
        </mxCell>
        <mxCell id="XuUBlldkIkATHeK3EOdW-149" value="" style="shape=message;html=1;outlineConnect=0;" vertex="1" parent="XuUBlldkIkATHeK3EOdW-148">
          <mxGeometry width="20" height="14" relative="1" as="geometry">
            <mxPoint x="-50" y="-6.43" as="offset" />
          </mxGeometry>
        </mxCell>
        <mxCell id="XuUBlldkIkATHeK3EOdW-136" value="RECETTE" style="swimlane;html=1;startSize=20;horizontal=0;" vertex="1" parent="XuUBlldkIkATHeK3EOdW-117">
          <mxGeometry x="20" y="230" width="760" height="150" as="geometry" />
        </mxCell>
        <mxCell id="XuUBlldkIkATHeK3EOdW-137" value="EMS REC" style="rounded=1;whiteSpace=wrap;html=1;" vertex="1" parent="XuUBlldkIkATHeK3EOdW-136">
          <mxGeometry x="290" y="10" width="140" height="100" as="geometry" />
        </mxCell>
        <mxCell id="XuUBlldkIkATHeK3EOdW-138" value="Consommateur" style="rounded=1;whiteSpace=wrap;html=1;" vertex="1" parent="XuUBlldkIkATHeK3EOdW-136">
          <mxGeometry x="70" y="60" width="120" height="30" as="geometry" />
        </mxCell>
        <mxCell id="XuUBlldkIkATHeK3EOdW-139" value="Producteur" style="rounded=1;whiteSpace=wrap;html=1;fillColor=#dae8fc;strokeColor=#6c8ebf;" vertex="1" parent="XuUBlldkIkATHeK3EOdW-136">
          <mxGeometry x="550" y="70" width="120" height="30" as="geometry" />
        </mxCell>
        <mxCell id="XuUBlldkIkATHeK3EOdW-140" value="" style="shape=datastore;whiteSpace=wrap;html=1;rotation=-90;fillColor=#dae8fc;strokeColor=#6c8ebf;" vertex="1" parent="XuUBlldkIkATHeK3EOdW-136">
          <mxGeometry x="349.5" y="44.5" width="24" height="75" as="geometry" />
        </mxCell>
        <mxCell id="XuUBlldkIkATHeK3EOdW-141" value="" style="endArrow=classic;html=1;strokeColor=#000000;entryX=1;entryY=0.75;entryDx=0;entryDy=0;exitX=0.5;exitY=0;exitDx=0;exitDy=0;edgeStyle=orthogonalEdgeStyle;" edge="1" parent="XuUBlldkIkATHeK3EOdW-136" source="XuUBlldkIkATHeK3EOdW-140" target="XuUBlldkIkATHeK3EOdW-138">
          <mxGeometry relative="1" as="geometry">
            <mxPoint x="345" y="-523" as="sourcePoint" />
            <mxPoint x="245" y="-523" as="targetPoint" />
          </mxGeometry>
        </mxCell>
        <mxCell id="XuUBlldkIkATHeK3EOdW-142" value="" style="shape=message;html=1;outlineConnect=0;" vertex="1" parent="XuUBlldkIkATHeK3EOdW-141">
          <mxGeometry width="20" height="14" relative="1" as="geometry">
            <mxPoint x="-10" y="-7" as="offset" />
          </mxGeometry>
        </mxCell>
        <mxCell id="XuUBlldkIkATHeK3EOdW-143" value="" style="endArrow=classic;html=1;strokeColor=#000000;entryX=0.5;entryY=1;entryDx=0;entryDy=0;exitX=0;exitY=0.5;exitDx=0;exitDy=0;edgeStyle=orthogonalEdgeStyle;" edge="1" parent="XuUBlldkIkATHeK3EOdW-136" source="XuUBlldkIkATHeK3EOdW-139" target="XuUBlldkIkATHeK3EOdW-140">
          <mxGeometry relative="1" as="geometry">
            <mxPoint x="550" y="-553" as="sourcePoint" />
            <mxPoint x="385" y="-553" as="targetPoint" />
          </mxGeometry>
        </mxCell>
        <mxCell id="XuUBlldkIkATHeK3EOdW-144" value="" style="shape=message;html=1;outlineConnect=0;" vertex="1" parent="XuUBlldkIkATHeK3EOdW-143">
          <mxGeometry width="20" height="14" relative="1" as="geometry">
            <mxPoint x="-10" y="-7" as="offset" />
          </mxGeometry>
        </mxCell>
        <mxCell id="XuUBlldkIkATHeK3EOdW-156" value="" style="shape=datastore;whiteSpace=wrap;html=1;rotation=-90;fillColor=#dae8fc;strokeColor=#6c8ebf;" vertex="1" parent="XuUBlldkIkATHeK3EOdW-136">
          <mxGeometry x="347" width="24" height="70" as="geometry" />
        </mxCell>
        <mxCell id="XuUBlldkIkATHeK3EOdW-153" value="" style="endArrow=classic;html=1;strokeColor=#b85450;entryX=0.5;entryY=1;entryDx=0;entryDy=0;edgeStyle=orthogonalEdgeStyle;fillColor=#f8cecc;strokeWidth=2;exitX=0;exitY=0.25;exitDx=0;exitDy=0;" edge="1" parent="XuUBlldkIkATHeK3EOdW-136" source="XuUBlldkIkATHeK3EOdW-139" target="XuUBlldkIkATHeK3EOdW-156">
          <mxGeometry relative="1" as="geometry">
            <mxPoint x="546" y="-180" as="sourcePoint" />
            <mxPoint x="409" y="-50" as="targetPoint" />
            <Array as="points">
              <mxPoint x="526" y="78" />
              <mxPoint x="526" y="35" />
            </Array>
          </mxGeometry>
        </mxCell>
        <mxCell id="XuUBlldkIkATHeK3EOdW-154" value="" style="shape=message;html=1;outlineConnect=0;" vertex="1" parent="XuUBlldkIkATHeK3EOdW-153">
          <mxGeometry width="20" height="14" relative="1" as="geometry">
            <mxPoint x="-35.57" y="-6.999999999999999" as="offset" />
          </mxGeometry>
        </mxCell>
        <mxCell id="XuUBlldkIkATHeK3EOdW-159" value="" style="endArrow=classic;html=1;strokeColor=#000000;entryX=1;entryY=0.5;entryDx=0;entryDy=0;exitX=0.5;exitY=0;exitDx=0;exitDy=0;edgeStyle=orthogonalEdgeStyle;" edge="1" parent="XuUBlldkIkATHeK3EOdW-117" source="XuUBlldkIkATHeK3EOdW-156" target="XuUBlldkIkATHeK3EOdW-135">
          <mxGeometry relative="1" as="geometry">
            <mxPoint x="256" y="264" as="sourcePoint" />
            <mxPoint x="117" y="260" as="targetPoint" />
            <Array as="points">
              <mxPoint x="247" y="265" />
              <mxPoint x="247" y="191" />
            </Array>
          </mxGeometry>
        </mxCell>
        <mxCell id="XuUBlldkIkATHeK3EOdW-160" value="" style="shape=message;html=1;outlineConnect=0;" vertex="1" parent="XuUBlldkIkATHeK3EOdW-159">
          <mxGeometry width="20" height="14" relative="1" as="geometry">
            <mxPoint x="-10" y="-22.29" as="offset" />
          </mxGeometry>
        </mxCell>
        <mxCell id="XuUBlldkIkATHeK3EOdW-146" value="" style="endArrow=classic;html=1;strokeColor=#000000;exitX=0.5;exitY=0;exitDx=0;exitDy=0;entryX=1;entryY=0.5;entryDx=0;entryDy=0;edgeStyle=orthogonalEdgeStyle;" edge="1" parent="XuUBlldkIkATHeK3EOdW-117" source="XuUBlldkIkATHeK3EOdW-130" target="XuUBlldkIkATHeK3EOdW-126">
          <mxGeometry relative="1" as="geometry">
            <mxPoint x="329" y="200" as="sourcePoint" />
            <mxPoint x="210" y="200" as="targetPoint" />
            <Array as="points">
              <mxPoint x="277" y="155" />
              <mxPoint x="277" y="80" />
            </Array>
          </mxGeometry>
        </mxCell>
        <mxCell id="XuUBlldkIkATHeK3EOdW-147" value="" style="shape=message;html=1;outlineConnect=0;" vertex="1" parent="XuUBlldkIkATHeK3EOdW-146">
          <mxGeometry width="20" height="14" relative="1" as="geometry">
            <mxPoint x="-20" y="-41.79" as="offset" />
          </mxGeometry>
        </mxCell>
        <mxCell id="XuUBlldkIkATHeK3EOdW-150" value="" style="shape=datastore;whiteSpace=wrap;html=1;rotation=-90;fillColor=#dae8fc;strokeColor=#6c8ebf;" vertex="1" parent="1">
          <mxGeometry x="389" y="685" width="24" height="75" as="geometry" />
        </mxCell>
        <mxCell id="XuUBlldkIkATHeK3EOdW-131" value="" style="endArrow=classic;html=1;strokeColor=#000000;exitX=0.5;exitY=0;exitDx=0;exitDy=0;entryX=1;entryY=0.5;entryDx=0;entryDy=0;edgeStyle=orthogonalEdgeStyle;" edge="1" parent="1" source="XuUBlldkIkATHeK3EOdW-150" target="XuUBlldkIkATHeK3EOdW-128">
          <mxGeometry relative="1" as="geometry">
            <mxPoint x="388" y="122" as="sourcePoint" />
            <mxPoint x="229" y="721" as="targetPoint" />
            <Array as="points">
              <mxPoint x="300" y="723" />
              <mxPoint x="300" y="685" />
            </Array>
          </mxGeometry>
        </mxCell>
        <mxCell id="XuUBlldkIkATHeK3EOdW-132" value="" style="shape=message;html=1;outlineConnect=0;" vertex="1" parent="XuUBlldkIkATHeK3EOdW-131">
          <mxGeometry width="20" height="14" relative="1" as="geometry">
            <mxPoint x="-10" y="-7" as="offset" />
          </mxGeometry>
        </mxCell>
        <mxCell id="XuUBlldkIkATHeK3EOdW-133" value="" style="endArrow=classic;html=1;strokeColor=#000000;entryX=0.5;entryY=1;entryDx=0;entryDy=0;exitX=0;exitY=0.5;exitDx=0;exitDy=0;edgeStyle=orthogonalEdgeStyle;" edge="1" parent="1" source="XuUBlldkIkATHeK3EOdW-129" target="XuUBlldkIkATHeK3EOdW-150">
          <mxGeometry relative="1" as="geometry">
            <mxPoint x="593" y="83" as="sourcePoint" />
            <mxPoint x="428" y="83" as="targetPoint" />
          </mxGeometry>
        </mxCell>
        <mxCell id="XuUBlldkIkATHeK3EOdW-134" value="" style="shape=message;html=1;outlineConnect=0;" vertex="1" parent="XuUBlldkIkATHeK3EOdW-133">
          <mxGeometry width="20" height="14" relative="1" as="geometry">
            <mxPoint x="-10" y="-7" as="offset" />
          </mxGeometry>
        </mxCell>
      </root>
    </mxGraphModel>
  </diagram>
</mxfile>
